<?xml version="1.0" encoding="UTF-8" standalone="no"?>
<svg width="37px" height="33px" viewBox="0 0 37 33" version="1.1" xmlns="http://www.w3.org/2000/svg" xmlns:xlink="http://www.w3.org/1999/xlink" xmlns:sketch="http://www.bohemiancoding.com/sketch/ns">
    <!-- Generator: Sketch 3.3.1 (12002) - http://www.bohemiancoding.com/sketch -->
    <title>Fill 169 Copy</title>
    <desc>Created with Sketch.</desc>
    <defs></defs>
    <g id="Page-1" stroke="none" stroke-width="1" fill="none" fill-rule="evenodd" sketch:type="MSPage">
        <g id="Group" sketch:type="MSLayerGroup" transform="translate(-48.000000, -33.000000)" fill="#A3B5D0">
            <g transform="translate(35.500000, 28.114995)" id="Fill-169-Copy" sketch:type="MSShapeGroup">
                <path d="M34.111,32.001 L22.111,32.001 L22.111,37.94 L13.111,29.001 L22.111,20.06 L22.111,26.001 L34.111,26.001 L34.111,32.001 L34.111,32.001 L34.111,32.001 L34.111,32.001 Z M16.111,11.001 L19.111,11.001 L19.111,17.001 L16.111,17.001 L16.111,17.001 L16.111,11.001 L16.111,11.001 Z M22.111,11.001 L25.111,11.001 L25.111,17.001 L22.111,17.001 L22.111,17.001 L22.111,11.001 L22.111,11.001 Z M28.111,11.001 L40.111,11.001 L40.111,5.06 L49.111,14.001 L40.111,22.94 L40.111,17.001 L28.111,17.001 L28.111,11.001 L28.111,11.001 L28.111,11.001 L28.111,11.001 Z M37.111,26.001 L40.111,26.001 L40.111,32.001 L37.111,32.001 L37.111,32.001 L37.111,26.001 L37.111,26.001 Z M43.111,32.001 L46.111,32.001 L46.111,26.001 L43.111,26.001 L43.111,26.001 L43.111,32.001 L43.111,32.001 Z"></path>
            </g>
        </g>
    </g>
</svg>